<?xml version="1.0" encoding="UTF-8" standalone="no"?>
<!DOCTYPE svg PUBLIC "-//W3C//DTD SVG 1.1//EN" "http://www.w3.org/Graphics/SVG/1.1/DTD/svg11.dtd">
<!-- Created with Vectornator (http://vectornator.io/) -->
<svg height="100%" stroke-miterlimit="10" style="fill-rule:nonzero;clip-rule:evenodd;stroke-linecap:round;stroke-linejoin:round;" version="1.1" viewBox="0 0 220 32" width="100%" xml:space="preserve" xmlns="http://www.w3.org/2000/svg" xmlns:xlink="http://www.w3.org/1999/xlink">
<defs>
<clipPath id="TextBounds">
<rect height="1" width="0" x="159.322" y="69.0301"/>
</clipPath>
<clipPath id="TextBounds_2">
<rect height="25.9142" width="191.446" x="1.62381" y="3.93703"/>
</clipPath>
</defs>
<clipPath id="ArtboardFrame">
<rect height="32" width="220" x="0" y="0"/>
</clipPath>
<g clip-path="url(#ArtboardFrame)" id="Layer-1">
<g fill="#000000" opacity="1" stroke="none"/>
<g fill="#000000" opacity="1" stroke="none">
<path clip-path="url(#TextBounds_2)" d="M9.70417 4.17715C8.84023 4.16491 7.97629 4.14111 7.11234 4.14349C6.32388 4.14519 5.53542 4.17443 4.7473 4.19449C4.60349 4.19823 4.47395 4.33933 4.47225 4.49063C4.45967 5.50519 4.44199 6.51941 4.44334 7.53397C4.44403 7.83317 4.52767 8.13271 4.52495 8.43157C4.52189 8.76511 4.43485 9.09797 4.43519 9.43151C4.43553 10.9353 4.45729 12.4395 4.46477 13.944C4.46749 14.4703 4.4158 14.9993 4.45388 15.5226C4.50386 16.2016 4.46238 16.8758 4.45355 17.5524C4.44232 18.416 4.42838 19.2803 4.43858 20.1439C4.44334 20.5192 4.44029 20.896 4.45219 21.2696C4.47089 21.8663 4.35053 22.4719 4.55181 23.0628C4.59635 23.193 4.54841 23.3596 4.52699 23.5068C4.42329 24.2171 4.36277 24.9314 4.47905 25.642C4.52801 25.9429 4.57356 26.2214 4.49775 26.5284C4.4073 26.8953 4.47599 27.2754 4.53413 27.6456C4.54297 27.7034 4.62967 27.7854 4.68883 27.7932C5.05399 27.8415 5.41371 27.9901 5.79213 27.8432C5.89039 27.8048 6.02265 27.7997 6.12329 27.8306C6.56699 27.9676 7.01579 27.9357 7.46561 27.8983C7.69001 27.8796 7.92155 27.8034 8.13575 27.8394C8.40061 27.884 8.64609 27.9329 8.90415 27.8231C8.96569 27.7969 9.05409 27.8184 9.12583 27.8354C9.34649 27.8877 9.57157 27.9571 9.78951 27.8585C10.0496 27.7408 10.3117 27.8833 10.5664 27.8235C10.6293 27.8088 10.7126 27.7442 10.7279 27.6871C10.836 27.2829 10.8251 26.867 10.8126 26.4533C10.7752 25.2129 10.7673 23.9719 10.7935 22.7309C10.8 22.43 10.7911 22.1291 10.7898 21.8279C10.7843 20.8875 10.7755 19.9474 10.7762 19.0069C10.7765 18.7444 10.7959 18.4809 10.8258 18.2202C10.8326 18.161 10.9091 18.0801 10.969 18.0627C11.1121 18.0216 11.2644 17.9941 11.4133 17.993C12.0903 17.9876 12.7672 17.9995 13.4438 17.9917C13.7434 17.9879 14.0422 17.9539 14.3411 17.9295C14.4288 17.9223 14.5526 17.7897 14.5617 17.7C14.5804 17.5136 14.608 17.327 14.6093 17.1407C14.6141 16.3879 14.6097 15.6355 14.6104 14.8831C14.6104 14.4689 14.6151 14.0552 14.6155 13.641C14.6155 13.4428 14.456 13.2589 14.2768 13.2653C13.7893 13.283 13.2993 13.2854 12.8158 13.3418C12.4752 13.3816 12.1457 13.4166 11.8111 13.3191C11.6262 13.265 11.4419 13.3116 11.2546 13.3401C10.8534 13.4013 10.8217 13.3701 10.8139 12.9311C10.8 12.179 10.7809 11.4266 10.7942 10.6745C10.802 10.223 10.8258 9.7732 10.7731 9.32304C10.7558 9.1765 10.8166 9.09388 10.935 9.0728C11.3045 9.00752 11.6728 8.95822 12.0522 8.96808C12.8794 8.98984 13.707 8.98576 14.5342 8.9878C14.6457 8.98814 14.762 8.97896 14.8674 8.94632C14.9303 8.92694 15.0082 8.86234 15.0241 8.80318C15.0626 8.66038 15.0836 8.50942 15.085 8.36186C15.0942 7.2351 15.0296 6.10868 15.0867 4.98158C15.0938 4.833 15.0653 4.68238 15.049 4.53312C15.0296 4.35564 14.8562 4.2006 14.6631 4.18734C14.5879 4.18224 14.5128 4.18428 14.4373 4.18326C13.574 4.17374 12.7108 4.16048 11.8475 4.15504C11.1328 4.15028 10.4182 4.15402 9.70383 4.15402C9.70349 4.16184 9.70349 4.16932 9.70417 4.17715Z"/>
<path clip-path="url(#TextBounds_2)" d="M42.0592 27.9289C42.9024 27.8952 43.7487 27.8843 44.5919 27.9122C45.2161 27.9326 45.8373 27.884 46.4602 27.8921C46.5622 27.8935 46.6506 27.7521 46.6061 27.6589C46.3844 27.1958 46.1066 26.7514 45.9485 26.2676C45.685 25.4618 45.3277 24.706 44.9231 23.9675C44.8704 23.8713 44.8279 23.7693 44.7837 23.669C44.477 22.9676 44.3151 22.2005 43.8255 21.5814C43.7603 21.4984 43.7365 21.3818 43.6994 21.2781C43.405 20.4492 43.0799 19.6325 42.6828 18.8464C42.5835 18.6499 42.4761 18.4558 42.3965 18.2511C41.9328 17.054 41.3803 15.8949 40.8135 14.7464C40.4568 14.0235 40.1117 13.3007 39.8316 12.5452C39.7044 12.2025 39.5823 11.8496 39.395 11.5392C39.2029 11.2209 39.1264 10.8496 38.9329 10.5508C38.6484 10.1112 38.4352 9.66135 38.3264 9.15101C38.289 8.97523 38.1958 8.80693 38.1044 8.64849C37.7008 7.94673 37.4019 7.19601 37.0738 6.45889C36.8797 6.02369 36.6876 5.58747 36.4792 5.15941C36.3785 4.95201 36.1966 4.78711 35.9607 4.81125C35.4184 4.86701 34.8642 4.65247 34.3327 4.88979C34.0767 4.87993 33.8207 4.86871 33.5647 4.86089C33.2723 4.85239 32.9829 4.84831 32.6953 4.76739C32.3767 4.67763 32.0609 4.87007 31.7212 4.78065C31.4458 4.70789 31.1384 4.76161 30.8457 4.74869C30.5499 4.73543 30.2561 4.73271 29.9739 4.83335C29.6367 4.95337 29.3293 4.70551 28.9985 4.76331C28.9624 4.76977 28.9244 4.76705 28.8893 4.77623C28.6745 4.83233 28.466 4.85069 28.2423 4.78541C28.1094 4.74699 27.9431 4.75787 27.8095 4.80105C27.3726 4.94283 26.9466 4.89999 26.5059 4.81601C25.9633 4.71265 25.4122 4.67593 24.8705 4.84525C24.6135 4.92549 24.3646 4.89115 24.1123 4.82009C24.011 4.79153 23.8597 4.87143 23.8359 4.95269C23.6081 5.73197 23.1039 6.39191 22.8761 7.17085C22.2454 8.41185 21.7201 9.69909 21.2013 10.9894C21.1057 11.227 21.0115 11.4766 20.8609 11.6786C20.4791 12.1899 20.3441 12.8097 20.068 13.366C20.0337 13.7434 19.8399 14.0531 19.6699 14.3805C19.401 14.8994 19.1528 15.4322 18.9416 15.9765C18.7162 16.5565 18.4269 17.1067 18.2014 17.687C17.9237 18.4031 17.6153 19.1123 17.2549 19.7896C16.9795 20.3074 16.8567 20.8905 16.5208 21.3764C16.4127 21.8078 16.1642 22.1825 16.0176 22.5949C15.8568 23.0471 15.6582 23.4759 15.4298 23.8948C15.3597 24.0233 15.2999 24.161 15.2601 24.3011C15.1377 24.7281 14.9232 25.1137 14.7385 25.5128C14.4308 26.1782 14.1201 26.8419 13.8226 27.5117C13.6937 27.8017 13.7865 27.9425 14.0834 27.9408C14.744 27.937 15.4046 27.9238 16.0652 27.9231C16.5419 27.9227 17.0199 27.9629 17.4949 27.937C18.0831 27.9054 18.6689 27.9163 19.2561 27.9387C19.4764 27.9472 19.6974 27.9649 19.9171 27.9557C20.8324 27.9176 21.7473 27.8972 22.6636 27.9309C23.1399 27.9486 23.6173 27.9401 24.094 27.9268C24.2412 27.9231 24.3728 27.8479 24.437 27.6943C24.4792 27.5929 24.5278 27.494 24.5734 27.3937C24.9668 26.5257 25.3013 25.6349 25.5777 24.7244C25.6437 24.5074 25.7518 24.3221 25.8593 24.1324C25.8912 24.0753 25.9664 24.0134 26.0276 24.0066C26.5382 23.9498 27.0513 23.8597 27.5644 23.9254C27.9713 23.977 28.3698 23.8917 28.7731 23.9087C29.1756 23.9257 29.5789 23.9407 29.9818 23.94C30.6791 23.9386 31.3768 23.9111 32.0745 23.9196C32.7613 23.9281 32.716 23.9114 33.0275 24.6043C33.1315 24.8362 33.158 25.1011 33.2444 25.3421C33.3797 25.7202 33.4589 26.115 33.5895 26.492C33.7326 26.9068 33.9407 27.2995 34.1185 27.7028C34.1865 27.8571 34.3154 27.9071 34.4694 27.9119C34.6887 27.9187 34.9087 27.9261 35.128 27.9248C35.8988 27.9193 36.6716 27.8711 37.4397 27.9125C38.4311 27.9656 39.4229 27.8486 40.4915 27.9727C40.958 27.8272 41.5091 27.9493 42.0592 27.9289ZM28.2913 18.5925C28.1747 18.5921 28.1121 18.502 28.1502 18.3857C28.3311 17.8295 28.4307 17.2413 28.7928 16.7565C28.9461 16.1533 29.3222 15.6297 29.4133 15.0017C29.4327 14.8667 29.5387 14.744 29.6091 14.6179C29.6152 14.6077 29.6669 14.6063 29.6744 14.6168C29.6945 14.6457 29.7098 14.6825 29.7138 14.7175C29.7727 15.2339 29.9223 15.7188 30.1994 16.1621C30.2575 16.255 30.3197 16.3508 30.349 16.4542C30.4384 16.7687 30.4625 17.1124 30.6063 17.3974C30.7559 17.6938 30.8573 18.0039 30.9854 18.3055C31.0307 18.4112 30.9555 18.5058 30.8195 18.5143C30.3442 18.5452 29.8689 18.5714 29.5139 18.5925C29.0253 18.5925 28.6585 18.5928 28.2913 18.5925Z"/>
<path clip-path="url(#TextBounds_2)" d="M71.6528 27.9248C71.9099 27.9248 72.1666 27.9248 72.4233 27.9248C73.2298 27.9248 74.0362 27.9248 74.8427 27.9238C74.9529 27.9234 75.0491 27.8211 75.0352 27.7133C74.9777 27.2744 74.9495 26.8422 75.0923 26.4067C75.147 26.2404 75.1463 26.0323 75.1008 25.862C74.9743 25.3911 75.0059 24.9127 75.0005 24.4381C74.9879 23.3375 75.0022 22.2362 75.0046 21.1353C75.0056 20.6954 75.0114 20.2551 75.0022 19.8151C74.9879 19.1552 74.9413 18.4959 75.0882 17.8428C75.111 17.7408 75.0981 17.6218 75.0705 17.5191C75.0209 17.3358 75.0239 17.1645 75.0763 16.9805C75.1154 16.8438 75.1395 16.6847 75.1089 16.5497C75.0032 16.0836 75.1691 15.6032 75.011 15.1394C74.9665 15.0085 74.9733 14.8378 75.0158 14.7042C75.1215 14.3703 74.9315 14.028 75.0267 13.7237C75.1358 13.3745 75.0022 13.0715 74.9903 12.7479C74.9791 12.4551 74.9621 12.1556 75.0066 11.8686C75.1086 11.2117 75.1946 10.5634 74.9944 9.90818C74.9529 9.77354 74.9835 9.61646 74.9865 9.46958C74.9899 9.32304 75.0069 9.17616 75.0059 9.02962C75.0022 8.58932 74.9529 8.14528 74.9961 7.70974C75.0437 7.23408 74.9665 6.76182 75.0392 6.28276C75.0987 5.89244 75.0137 5.48036 74.991 5.07814C74.9838 4.95608 74.908 4.8585 74.7931 4.8585C74.5078 4.85918 74.2287 4.69734 73.9336 4.84796C73.8492 4.8908 73.7156 4.86394 73.6129 4.83776C73.394 4.78234 73.1845 4.782 72.9622 4.83266C72.529 4.9316 72.0918 4.93194 71.6542 4.83164C71.0014 4.68272 70.3404 4.70584 69.6904 4.82688C69.3565 4.8891 69.0433 4.90542 68.7142 4.82484C68.4936 4.77078 68.3827 4.8772 68.3769 5.12438C68.3623 5.74794 68.3501 6.37184 68.3497 6.9954C68.3487 8.09496 68.3593 9.19452 68.3613 10.2937C68.3627 11.0635 68.3542 11.8333 68.3572 12.603C68.3586 12.9689 68.3766 13.3347 68.3871 13.7005C68.5803 14.1048 68.3219 14.4934 68.3453 14.8919C68.3579 15.1115 68.3654 15.3322 68.364 15.5522C68.3572 16.3961 68.3477 17.2403 68.3334 18.0845C68.3324 18.1528 68.3066 18.2538 68.26 18.2786C68.2168 18.3018 68.1124 18.2613 68.0652 18.2168C67.3971 17.5898 66.7347 16.9581 66.2016 16.2043C66.0762 16.0268 65.9123 15.8725 65.7477 15.7283C65.2476 15.2917 64.81 14.8008 64.4098 14.2721C64.2786 14.0987 64.1314 13.9215 63.9535 13.8036C63.7308 13.656 63.5629 13.4806 63.432 13.2524C63.3398 13.0919 63.1957 12.9791 63.0376 12.8777C62.9165 12.8002 62.7935 12.7009 62.7183 12.5816C62.4215 12.11 61.9996 11.7503 61.6375 11.3379C61.0329 10.649 60.426 9.96156 59.8025 9.28972C59.2816 8.7294 58.7267 8.20036 58.2551 7.59448C58.0732 7.36056 57.8543 7.16574 57.6061 7.00424C57.3558 6.84172 57.1386 6.63772 56.9883 6.38578C56.8724 6.19198 56.7299 6.04 56.5619 5.89448C56.2845 5.65376 56.0312 5.38686 55.851 5.06012C55.8337 5.02884 55.8068 5.00232 55.784 4.97342C55.6885 4.85068 55.562 4.78336 55.4073 4.782C55.0772 4.77894 54.747 4.77758 54.4169 4.7837C54.1612 4.78846 53.897 4.76942 53.6519 4.82654C53.2826 4.91256 52.9311 4.91426 52.5666 4.81464C52.3942 4.76738 52.1895 4.72964 52.0267 4.7786C51.6258 4.89964 51.242 4.91528 50.8397 4.79322C50.7078 4.7531 50.5511 4.78948 50.4059 4.79798C50.2988 4.80444 50.1798 4.85986 50.0877 4.82858C49.6487 4.67966 49.2156 4.78234 48.7793 4.82586C48.5985 4.84388 48.4166 4.85068 48.235 4.85918C48.1153 4.86496 48.0324 4.94146 48.03 5.06148C48.0201 5.57182 47.944 6.07808 48.0069 6.5942C48.0463 6.91652 48.0133 7.25584 47.9582 7.5785C47.914 7.83656 47.9001 8.07558 47.9446 8.3367C47.999 8.6597 47.9963 8.99426 48.0011 9.32372C48.0137 10.1676 48.0276 11.0115 48.0208 11.8554C48.0147 12.6608 48.065 13.4687 47.9446 14.2707C47.9338 14.3428 47.9086 14.422 47.9276 14.4873C48.0106 14.7756 47.9994 15.0568 47.9647 15.3553C47.927 15.677 47.9752 16.0102 47.9994 16.3372C48.0239 16.6687 48.0171 16.9958 47.9542 17.3239C47.9273 17.4637 47.9361 17.6126 47.9443 17.7561C47.9565 17.9754 47.9984 18.1936 47.999 18.4126C48.0001 18.8889 48.0602 19.368 47.964 19.8406C47.859 20.3557 48.0738 20.8579 48.0113 21.3696C47.998 21.4784 47.9912 21.5906 47.9589 21.6939C47.9144 21.8367 47.8858 21.9765 47.9297 22.1234C48.0589 22.5558 48.013 22.9951 47.9837 23.4341C47.9746 23.5779 47.9627 23.7261 47.9854 23.8669C48.0854 24.4921 48.05 25.1191 47.929 25.7287C47.8328 26.2129 48.029 26.6732 47.9463 27.1509C47.9174 27.3175 48.0232 27.5056 48.0562 27.6858C48.0806 27.818 48.1816 27.8741 48.2826 27.8928C48.4614 27.9261 48.6471 27.9384 48.8297 27.9377C49.3424 27.9346 49.8561 27.8955 50.3678 27.9156C51.6517 27.9663 52.9358 27.9139 54.2193 27.9384C54.506 27.9438 54.6552 27.8139 54.5903 27.5501C54.5362 27.3315 54.5206 27.1186 54.5978 26.9007C54.6858 26.6515 54.6879 26.4019 54.5981 26.1462C54.5644 26.0497 54.56 25.9239 54.5906 25.8263C54.7273 25.3884 54.6498 24.9535 54.6039 24.5159C54.5848 24.3354 54.5417 24.144 54.5808 23.9736C54.6811 23.5374 54.6579 23.1019 54.6641 22.6612C54.6719 22.0754 54.5882 21.4896 54.6743 20.9034C54.7004 20.7249 54.6671 20.5376 54.663 20.354C54.6542 19.9878 54.6841 19.6155 54.6287 19.2561C54.5658 18.8485 54.6352 18.4585 54.6671 18.0604C54.6821 17.8785 54.6654 17.6942 54.6647 17.5109C54.6624 16.8513 54.6566 16.1917 54.6607 15.5321C54.6627 15.2373 54.6573 14.948 54.5804 14.6587C54.5451 14.5244 54.5604 14.3697 54.5804 14.2282C54.6117 14.0123 54.6654 13.7991 54.714 13.586C54.7202 13.5608 54.7569 13.5227 54.7752 13.5248C54.8079 13.5282 54.847 13.5513 54.8677 13.5781C55.3842 14.2462 56.0227 14.8004 56.5895 15.4213C57.0335 15.9075 57.4959 16.3763 57.9678 16.8353C58.2592 17.1186 58.4863 17.4535 58.7488 17.7584C59.0099 18.0624 59.3635 18.2895 59.609 18.6027C60.1527 19.2963 60.8786 19.827 61.3491 20.5828C61.3869 20.6437 61.4501 20.6889 61.5018 20.7409C61.9163 21.1561 62.3345 21.5675 62.7445 21.9867C63.0522 22.3005 63.3551 22.6194 63.6047 22.9839C63.8141 23.2899 64.0668 23.5483 64.3847 23.7492C64.5346 23.8438 64.6522 23.9944 64.7709 24.1314C64.8902 24.2698 64.9814 24.4326 65.1038 24.5676C65.8429 25.3819 66.5862 26.1928 67.3308 27.002C67.5796 27.2716 67.8329 27.5372 68.092 27.7966C68.1672 27.8717 68.2678 27.9714 68.3586 27.9731C68.7965 27.9809 69.2351 27.9571 69.6734 27.9489C70.3333 27.9367 70.9929 27.9278 71.6528 27.9173C71.6528 27.92 71.6528 27.9224 71.6528 27.9248Z"/>
<path clip-path="url(#TextBounds_2)" d="M77.7385 19.3986C77.6661 19.3942 77.5076 19.5237 77.4964 19.5975C77.4692 19.7787 77.423 19.9603 77.4243 20.1415C77.4291 20.9483 77.4492 21.7551 77.4611 22.562C77.4675 23.006 77.5576 23.4337 77.6848 23.8577C77.78 24.1736 77.8514 24.4962 77.9388 24.8148C78.0173 25.1004 78.14 25.3653 78.3304 25.5968C78.6327 25.9643 78.9118 26.3516 79.3749 26.5495C79.5398 26.6199 79.6714 26.7654 79.8298 26.8562C80.2419 27.0931 80.6645 27.3036 81.1106 27.4787C81.6322 27.6837 82.1894 27.6837 82.7178 27.8401C82.9568 27.9108 83.2275 27.8823 83.4838 27.8836C84.0343 27.887 84.5847 27.8745 85.1349 27.8796C85.924 27.887 86.654 27.6222 87.3687 27.3492C88.2146 27.0255 88.7032 26.6525 89.3736 26.0211C89.563 25.843 89.7041 25.6335 89.8296 25.4054C90.1726 24.7839 90.3722 24.1144 90.4334 23.4167C90.5494 22.0982 90.5643 20.7787 90.3001 19.47C90.2641 19.2912 90.2413 19.1052 90.2451 18.9233C90.2515 18.5795 90.1414 18.265 89.9962 17.9716C89.7531 17.479 89.4933 16.9917 89.156 16.5531C88.9541 16.2907 88.7474 16.0217 88.4567 15.8595C88.1945 15.7137 87.9725 15.5352 87.7726 15.3162C87.7005 15.2373 87.6039 15.168 87.505 15.1282C87.2609 15.0306 87.0599 14.8725 86.8651 14.7052C86.3344 14.2493 85.6942 13.9538 85.1454 13.5248C84.5946 13.2939 84.1699 12.8764 83.6912 12.5394C83.0728 12.1042 82.8596 11.4382 82.781 10.7351C82.7195 10.1849 82.8589 9.64095 82.9878 9.10545C83.0313 8.92422 83.2866 8.73552 83.4872 8.72941C83.6701 8.72363 83.8537 8.72805 84.0363 8.73961C84.1795 8.74845 84.4008 8.94633 84.4324 9.08505C84.4566 9.19079 84.4851 9.29925 84.4872 9.40703C84.497 9.99421 84.4984 10.5814 84.5055 11.1686C84.5076 11.3511 84.5178 11.5334 84.5269 11.716C84.531 11.7942 84.6531 11.9529 84.7187 11.9648C85.1865 12.0509 85.6602 12.143 86.1331 12.0808C86.5027 12.0322 86.8655 12.0077 87.2269 12.0859C87.5499 12.1556 87.8858 11.956 88.1979 12.1464C88.7453 12.0927 89.2924 12.04 89.8394 11.9859C89.8989 11.9798 90.0268 11.8108 90.0322 11.7374C90.0346 11.7013 90.0574 11.666 90.0567 11.6306C90.0492 10.8959 90.0407 10.1611 90.0278 9.42675C90.0261 9.31761 90.0258 9.19861 89.9839 9.10171C89.8656 8.82869 89.8364 8.53595 89.7609 8.25545C89.6178 7.72335 89.3553 7.23001 89.02 6.79243C88.6137 6.26169 88.0266 5.92849 87.5142 5.51471C87.2735 5.31989 86.9433 5.40625 86.6686 5.30391C86.5652 5.26515 86.4626 5.22537 86.3585 5.18899C85.8349 5.00641 85.3008 4.88775 84.7408 4.90135C84.5592 4.90577 84.362 4.91393 84.1971 4.85307C83.8741 4.73373 83.5409 4.68171 83.2247 4.77623C82.8963 4.87415 82.573 4.74597 82.2462 4.84457C81.791 4.98193 81.3078 5.02919 80.8556 5.17403C79.8567 5.49397 80.1209 5.20395 79.2022 5.97881C79.0907 6.07265 78.9537 6.13555 78.834 6.22055C78.3604 6.55681 77.7929 7.31025 77.6215 7.87907C77.3778 8.68725 77.1999 9.51073 77.2108 10.3621C77.2183 10.9489 77.1843 11.5426 77.2639 12.1206C77.3482 12.7326 77.5005 13.3446 77.7042 13.9283C77.9711 14.6933 78.3471 15.4114 79.0135 15.9262C79.3606 16.1941 79.6836 16.5059 80.0627 16.7167C80.5156 16.9686 80.9294 17.2566 81.3136 17.6007C81.4754 17.7459 81.672 17.8557 81.8607 17.9679C82.7151 18.4765 83.5073 19.0671 84.258 19.7185C84.4627 19.896 84.5915 20.1061 84.6714 20.3533C84.8656 20.9541 84.8938 21.5729 84.9098 22.2005C84.9224 22.6976 84.8105 23.144 84.6065 23.5806C84.5429 23.7173 84.4392 23.824 84.2947 23.8754C84.157 23.925 84.0159 23.9682 83.8728 23.9998C83.8065 24.0144 83.7194 24.0172 83.6637 23.9859C83.2982 23.7822 83.0082 23.5296 82.9963 23.057C82.9844 22.5813 82.8847 22.1118 82.9398 21.6287C82.9684 21.3801 82.8426 21.1068 82.897 20.8701C82.9942 20.4495 82.917 20.0725 82.7824 19.6859C82.7396 19.5632 82.6501 19.5105 82.5461 19.4856C82.404 19.4516 82.253 19.4537 82.1109 19.4204C81.6029 19.302 81.1014 19.2575 80.5901 19.4214C80.4211 19.4754 80.2266 19.4574 80.0434 19.4601C79.7132 19.4652 79.3834 19.4615 78.833 19.4615C78.6143 19.4489 78.1771 19.4231 77.7385 19.3986Z"/>
<path clip-path="url(#TextBounds_2)" d="M101.483 10.0265C101.54 9.17107 101.239 7.63869 100.907 6.79787C100.893 6.76421 100.884 6.72817 100.871 6.69417C100.572 5.92611 99.9782 5.44297 99.2564 5.12609C98.8579 4.95133 98.417 4.83845 97.9736 4.83437C97.4265 4.82927 96.888 4.72523 96.3396 4.72727C96.1162 4.72795 95.9061 4.72285 95.6966 4.80989C95.5616 4.86565 95.4165 4.89557 95.276 4.93773C94.4318 5.19137 93.7675 5.66635 93.3646 6.47215C93.2666 6.66833 93.1337 6.84751 93.0324 7.04233C92.9654 7.17119 92.9005 7.31025 92.878 7.45169C92.7461 8.28299 92.555 9.10749 92.5982 9.96021C92.6183 10.3631 92.6026 10.768 92.6047 11.172C92.6087 12.0896 92.6186 13.0069 92.6149 13.9246C92.6142 14.1422 92.5982 14.368 92.5387 14.5757C92.4445 14.9055 92.4387 15.2288 92.5234 15.5535C92.5996 15.8453 92.5843 16.1275 92.535 16.4236C92.4377 17.0026 92.4255 17.5867 92.4578 18.177C92.4931 18.8335 92.4615 19.4938 92.4629 20.1524C92.4639 20.7392 92.4109 21.3339 92.4894 21.9102C92.569 22.4953 92.572 23.0794 92.6166 23.6632C92.6387 23.956 92.6186 24.2623 92.7019 24.537C92.7869 24.8182 92.8467 25.1021 92.9141 25.3863C92.9644 25.5985 93.0395 25.8056 93.113 26.0116C93.15 26.1143 93.2031 26.2115 93.2568 26.3071C93.385 26.5362 93.5621 26.7205 93.7909 26.85C94.1411 27.0489 94.5117 27.2169 94.8429 27.4427C95.2053 27.6898 95.6313 27.5746 96.0091 27.7167C96.7302 27.9873 97.4554 27.8626 98.1756 27.6966C98.7927 27.5545 99.305 27.1826 99.8654 26.9157C99.93 26.8851 99.9922 26.8354 100.037 26.7797C100.468 26.2391 101.005 25.7695 101.192 25.0647C101.417 24.708 101.461 24.3106 101.461 23.9012C101.461 23.3144 101.466 22.7275 101.466 22.1407C101.466 21.9948 101.488 21.8371 101.443 21.7045C101.319 21.3403 101.381 20.9857 101.421 20.6199C101.494 19.9644 101.57 19.3048 101.365 18.6533C101.333 18.552 101.313 18.4231 101.347 18.329C101.508 17.8907 101.408 17.4596 101.353 17.023C101.321 16.7684 101.328 16.5106 101.417 16.2618C101.481 16.0839 101.472 15.9 101.433 15.7184C101.395 15.5386 101.385 15.3672 101.422 15.1789C101.471 14.93 101.475 14.6685 101.468 14.4128C101.458 14.0477 101.352 13.6713 101.412 13.3211C101.482 12.9138 101.384 12.5143 101.463 12.0821C101.411 11.4188 101.437 10.7242 101.483 10.0265ZM96.2168 16.6157C96.193 16.2893 96.2063 15.9496 96.2695 15.6294C96.343 15.2577 96.3504 14.9045 96.2369 14.5451C96.2151 14.4768 96.1998 14.3969 96.2138 14.3285C96.3474 13.6737 96.1631 13.0199 96.2223 12.3606C96.2814 11.7058 96.2178 11.0407 96.243 10.3815C96.2583 9.97721 96.3872 9.59165 96.6231 9.25233C96.7571 9.06023 97.1637 9.04391 97.3116 9.22241C97.3351 9.25063 97.3759 9.27137 97.3857 9.30265C97.5044 9.68379 97.6707 10.049 97.6727 10.4651C97.6751 10.9034 97.6958 11.3413 97.8342 11.7704C97.8991 11.9706 97.91 12.2182 97.8556 12.4201C97.7849 12.6836 97.8148 12.9141 97.8692 13.1691C97.9138 13.3782 97.9284 13.621 97.8648 13.8199C97.7489 14.183 97.7601 14.541 97.7764 14.9082C97.8022 15.4924 97.6802 16.0799 97.8325 16.6623C97.8583 16.7606 97.8114 16.8785 97.7948 16.987C97.7281 17.4232 97.7064 17.8584 97.7315 18.3025C97.7587 18.7768 97.7482 19.2572 97.7036 19.7301C97.6588 20.2088 97.6934 20.6821 97.7036 21.1585C97.7115 21.5246 97.7047 21.8918 97.6962 22.2584C97.6938 22.3672 97.6683 22.4763 97.6445 22.5831C97.5877 22.8384 97.2759 23.1138 97.0179 23.1328C96.7714 23.1509 96.6007 23.0104 96.4654 22.8302C96.3314 22.6528 96.2104 22.4477 96.2484 22.2227C96.3236 21.781 96.2342 21.3448 96.241 20.9062C96.2505 20.2826 96.2433 19.6591 96.2433 19.0355C96.2216 18.2294 96.276 17.4232 96.2168 16.6157Z"/>
<path clip-path="url(#TextBounds_2)" d="M107.257 17.2121C107.257 16.7718 107.279 16.3301 107.253 15.8912C107.181 14.6801 107.225 13.4734 107.339 12.2678C107.245 11.9298 107.461 11.6167 107.428 11.2913C107.37 10.7242 107.571 10.2053 107.684 9.67053C107.764 9.29619 107.997 9.01229 108.31 8.80013C108.36 8.76647 108.454 8.76715 108.516 8.78823C108.735 8.86405 108.878 9.02283 108.977 9.23159C109.154 9.60389 109.16 10.0156 109.264 10.4032C109.343 10.699 109.357 10.969 109.263 11.2631C109.158 11.5905 109.218 11.9169 109.378 12.2222C109.466 12.3922 109.598 12.5173 109.782 12.5697C109.923 12.6091 110.068 12.6465 110.213 12.6513C110.615 12.6646 111.01 12.685 111.409 12.7757C111.762 12.8563 112.132 12.7938 112.484 12.6431C112.793 12.5112 112.943 12.2916 112.981 11.9788C113 11.8343 113 11.6867 112.998 11.5409C112.986 10.734 113.002 9.92485 112.945 9.12109C112.906 8.57709 112.789 8.03275 112.541 7.53363C112.394 7.23851 112.257 6.93455 112.077 6.65949C111.61 5.94277 111.055 5.32465 110.19 5.06421C109.804 4.94793 109.43 4.81227 109.015 4.81975C108.762 4.82451 108.494 4.68987 108.258 4.73849C107.895 4.81363 107.525 4.80037 107.169 4.88129C106.669 4.99519 106.193 5.15771 105.794 5.51913C105.548 5.74183 105.296 5.95059 105.119 6.23415C104.867 6.63535 104.592 7.01513 104.459 7.48977C104.352 7.87261 104.137 8.22315 104.036 8.61925C103.89 9.19045 103.937 9.79123 103.742 10.3536C103.707 10.4546 103.711 10.5712 103.707 10.6807C103.689 11.2678 103.661 11.8547 103.662 12.4415C103.664 13.5788 103.678 14.7161 103.697 15.8534C103.701 16.071 103.748 16.2886 103.781 16.5055C103.804 16.65 103.854 16.7922 103.864 16.9373C103.915 17.7057 103.788 18.4772 103.902 19.2466C103.922 19.387 103.873 19.5366 103.862 19.6828C103.853 19.827 103.832 19.9746 103.851 20.116C103.898 20.4852 103.88 20.8487 103.798 21.2094C103.757 21.3917 103.758 21.5681 103.793 21.7531C103.833 21.9673 103.849 22.1869 103.867 22.4049C103.898 22.8071 103.91 23.2114 103.954 23.6126C104.014 24.1606 104.183 24.6853 104.321 25.217C104.409 25.5529 104.71 25.7525 104.796 26.0779C105.066 26.3727 105.231 26.7562 105.562 26.9979C105.74 27.1268 105.909 27.3077 106.108 27.3563C106.676 27.495 107.2 27.7993 107.795 27.8269C108.197 27.8456 108.601 27.834 109.005 27.8269C109.15 27.8245 109.306 27.8255 109.439 27.7748C110.193 27.4865 110.96 27.2135 111.463 26.5172C111.527 26.4291 111.611 26.3543 111.692 26.2799C111.997 25.999 112.202 25.6645 112.307 25.2585C112.362 25.0484 112.468 24.8502 112.561 24.6516C112.655 24.4517 112.701 24.2388 112.767 24.0321C112.937 23.4993 112.972 22.9618 112.983 22.4096C112.997 21.679 112.938 20.9429 113.128 20.2204C113.196 19.9657 113.102 19.7114 112.99 19.4754C112.925 19.3377 112.824 19.2337 112.672 19.1966C111.881 19.0062 111.076 18.9722 110.269 18.996C110.092 19.0015 109.911 19.0712 109.743 19.1385C109.611 19.1905 109.481 19.2687 109.379 19.3653C109.228 19.5074 109.286 19.6944 109.299 19.8797C109.32 20.2054 109.295 20.5335 109.381 20.8545C109.4 20.9232 109.408 21.0075 109.385 21.0724C109.252 21.458 109.329 21.8677 109.234 22.2634C109.148 22.6215 109.022 22.9642 108.92 23.3154C108.855 23.5398 108.676 23.6836 108.464 23.7594C108.373 23.7924 108.237 23.7843 108.153 23.7373C108.03 23.6673 107.939 23.5422 107.828 23.448C107.497 23.1661 107.338 22.7785 107.362 22.3767C107.384 22.001 107.261 21.6525 107.278 21.2846C107.295 20.9184 107.277 20.5509 107.277 20.184C107.276 19.1932 107.276 18.2025 107.276 17.2117C107.27 17.2117 107.263 17.2117 107.257 17.2121Z"/>
<path clip-path="url(#TextBounds_2)" d="M119.055 27.9064C120.313 27.8394 120.107 28.0261 120.164 26.8585C120.175 26.6389 120.187 26.4165 120.23 26.202C120.304 25.8362 120.326 25.4792 120.224 25.1133C120.175 24.9389 120.16 24.7505 120.158 24.5683C120.153 23.9077 120.159 23.2467 120.161 22.5861C120.163 22.1832 120.164 21.78 120.169 21.3767C120.175 20.9735 120.202 20.5696 120.186 20.1673C120.169 19.7274 120.242 19.2861 120.208 18.8556C120.176 18.4514 120.198 18.0498 120.177 17.6476C120.149 17.1369 120.127 16.6222 120.265 16.1145C120.31 15.9462 120.288 15.749 120.256 15.5729C120.171 15.1027 120.28 14.6226 120.165 14.1534C120.131 14.0154 120.167 13.861 120.167 13.7145C120.169 12.43 120.15 11.1451 120.18 9.86161C120.2 8.98407 120.075 8.10041 120.277 7.22831C120.3 7.12801 120.256 7.01275 120.244 6.90395C120.228 6.75945 120.173 6.60543 120.205 6.47249C120.329 5.95399 120.157 5.45487 120.136 4.94691C120.132 4.86361 119.978 4.73781 119.898 4.75481C119.393 4.86259 118.889 4.88231 118.384 4.74631C118.281 4.71877 118.16 4.72319 118.056 4.74767C117.728 4.82451 117.405 4.79391 117.074 4.76399C116.71 4.73135 116.34 4.74155 115.974 4.74155C115.37 4.74121 115.283 4.83029 115.28 5.44399C115.278 5.66431 115.287 5.88463 115.29 6.10495C115.3 6.69213 115.298 7.27965 115.321 7.86649C115.36 8.81781 115.175 9.77287 115.373 10.7221C115.394 10.8241 115.349 10.9387 115.346 11.0479C115.325 11.6677 115.217 12.2838 115.351 12.9097C115.402 13.1463 115.302 13.4119 115.297 13.6645C115.291 13.9178 115.464 14.1466 115.395 14.4176C115.259 14.9582 115.309 15.5127 115.306 16.0622C115.299 17.3096 115.309 18.5574 115.301 19.8052C115.298 20.202 115.373 20.5927 115.296 20.999C115.229 21.3519 115.242 21.73 115.367 22.0883C115.453 22.3359 115.468 22.6011 115.405 22.8493C115.34 23.1039 115.303 23.3368 115.391 23.5976C115.473 23.8424 115.458 24.111 115.379 24.3582C115.286 24.6462 115.29 24.9345 115.299 25.2293C115.31 25.5961 115.296 25.9637 115.301 26.3309C115.303 26.5134 115.283 26.71 115.343 26.8752C115.436 27.1343 115.387 27.3801 115.362 27.6331C115.353 27.7245 115.459 27.8626 115.542 27.8755C115.651 27.8925 115.761 27.9292 115.867 27.9207C116.49 27.8724 117.113 27.8683 117.522 27.9095C118.176 27.9095 118.616 27.9292 119.055 27.9064Z"/>
<path clip-path="url(#TextBounds_2)" d="M136.04 27.9217C137.983 27.9217 139.927 27.9221 141.87 27.9217C142.054 27.9214 142.237 27.9149 142.42 27.9166C143.264 27.9248 144.107 27.9557 144.949 27.9391C146.123 27.9156 147.296 27.8898 148.469 27.9346C148.616 27.9401 148.763 27.9408 148.91 27.9367C148.982 27.9346 149.055 27.917 149.127 27.9078C149.209 27.8969 149.331 27.7714 149.332 27.6807C149.338 26.9847 149.341 26.289 149.346 25.5934C149.354 24.3102 149.366 23.0267 149.371 21.7432C149.372 21.2666 149.357 20.7892 149.346 20.3125C149.339 20.0524 149.236 19.9521 148.94 19.8974C148.76 19.8641 148.581 19.8216 148.4 19.7961C148.295 19.7814 148.174 19.7631 148.08 19.7991C147.826 19.8953 147.584 19.9117 147.331 19.8069C147.118 19.7185 146.897 19.743 146.681 19.7947C146.357 19.8722 146.03 19.9276 145.7 19.86C145.412 19.8008 145.129 19.6978 144.833 19.7437C144.543 19.7886 144.259 19.8535 143.971 19.7461C143.539 19.913 143.111 19.8131 142.677 19.7471C142.502 19.7202 142.306 19.743 142.135 19.7954C141.846 19.8838 141.553 19.9083 141.264 19.8692C140.831 19.8103 140.389 19.9205 139.958 19.7678C139.795 19.71 139.579 19.7063 139.416 19.7627C139.155 19.8535 138.896 19.7026 138.663 19.7831C138.362 19.8872 138.083 19.7638 137.794 19.7743C137.356 19.7903 136.914 19.7029 136.483 19.8552C136.307 19.9168 136.114 19.912 135.943 19.8338C135.693 19.7192 135.442 19.7729 135.187 19.7913C135.141 19.7947 135.046 19.7097 135.046 19.6658C135.047 19.1895 135.06 18.7132 135.076 18.2372C135.082 18.0855 135.201 17.9968 135.38 17.9954C136.296 17.9879 137.213 17.9757 138.129 17.9757C139.083 17.9754 140.035 17.9859 140.988 17.9934C141.722 17.9988 142.456 17.9624 143.189 18.0107C143.37 18.0226 143.554 17.9927 143.737 17.9781C143.869 17.9672 144.024 17.8139 144.027 17.6921C144.031 17.5466 144.049 17.3977 144.027 17.2556C143.952 16.782 143.994 16.3087 144.013 15.8354C144.026 15.5056 144.049 15.1758 144.054 14.8457C144.059 14.5981 143.898 14.4251 143.665 14.4023C143.337 14.37 143.009 14.3258 142.68 14.3102C142.317 14.2932 141.955 14.2901 141.592 14.2541C141.229 14.2177 140.859 14.2173 140.498 14.3156C140.282 14.3741 140.063 14.3659 139.845 14.3074C139.739 14.2789 139.622 14.2337 139.522 14.2541C139.009 14.3581 138.501 14.2354 137.991 14.2394C137.734 14.2415 137.477 14.2476 137.22 14.2653C136.929 14.2853 136.637 14.352 136.348 14.3391C136.09 14.3275 135.842 14.3391 135.587 14.3737C135.12 14.437 135.003 14.32 135.014 13.8328C135.024 13.3925 135.043 12.9522 135.058 12.5119C135.061 12.4225 135.102 12.3691 135.183 12.3603C135.472 12.3276 135.756 12.2338 136.053 12.3167C136.157 12.346 136.281 12.3905 136.374 12.3606C136.883 12.1977 137.387 12.2851 137.896 12.3392C138.112 12.362 138.337 12.3592 138.552 12.3286C139.064 12.2555 139.577 12.2868 140.09 12.2848C141.558 12.2787 143.026 12.2729 144.494 12.2685C144.898 12.2671 145.304 12.245 145.705 12.28C146.141 12.3184 146.576 12.3327 147.012 12.3123C147.332 12.4871 147.667 12.2671 147.987 12.3463C148.362 12.4391 148.71 12.277 149.072 12.2501C149.212 12.2392 149.333 12.0866 149.342 11.9482C149.344 11.9118 149.358 11.8754 149.358 11.8394C149.35 10.6664 149.297 9.49305 149.373 8.32005C149.378 8.24695 149.382 8.17249 149.375 8.09973C149.282 7.14773 149.354 6.19301 149.326 5.23965C149.323 5.13221 149.319 5.01967 149.285 4.92005C149.266 4.86565 149.181 4.79629 149.128 4.79765C148.948 4.80309 148.768 4.85919 148.589 4.85307C148.409 4.84695 148.232 4.77725 148.052 4.75923C147.87 4.74121 147.685 4.74529 147.501 4.75243C146.995 4.77249 146.49 4.92209 145.982 4.77317C145.731 4.89489 145.479 4.78133 145.229 4.78235C144.938 4.78337 144.65 4.86905 144.359 4.87993C144.106 4.88911 143.843 4.87415 143.597 4.81669C143.343 4.75719 143.093 4.72727 142.835 4.73849C142.36 4.75923 141.882 4.71163 141.416 4.86667C141.283 4.91053 141.117 4.91053 140.981 4.87483C140.691 4.79935 140.406 4.77997 140.114 4.83573C139.208 4.62459 138.29 4.88197 137.381 4.76603C137.311 4.75719 137.233 4.77487 137.164 4.79697C136.911 4.87993 136.663 4.87211 136.407 4.80003C136.306 4.77181 136.186 4.77657 136.081 4.79901C135.865 4.84525 135.649 4.90951 135.432 4.82383C135.182 4.72421 134.927 4.88503 134.672 4.78745C134.465 4.70857 134.238 4.71027 134.021 4.77589C133.878 4.81907 133.742 4.83981 133.594 4.79425C133.343 4.71707 133.082 4.72115 132.83 4.77045C132.574 4.82043 132.323 4.85647 132.07 4.78303C131.73 4.68443 131.426 4.91971 131.095 4.88333C130.768 4.84763 130.443 4.79425 130.115 4.76399C130.009 4.75413 129.899 4.79765 129.789 4.80853C129.681 4.81941 129.572 4.82791 129.463 4.82485C128.547 4.79833 127.63 4.74937 126.713 4.74767C126.129 4.74631 125.539 4.69939 124.96 4.85613C124.829 4.89149 124.673 4.82689 124.528 4.81601C124.347 4.80241 124.165 4.79527 123.983 4.78915C123.948 4.78779 123.91 4.79867 123.876 4.81159C123.62 4.90645 123.37 4.83505 123.117 4.79867C122.977 4.77827 122.842 4.91495 122.847 5.07067C122.868 5.87749 122.901 6.68363 122.845 7.49079C122.83 7.71009 122.842 7.93143 122.846 8.15141C122.858 8.77327 122.884 9.39513 122.881 10.0166C122.875 11.4113 122.849 12.8057 122.841 14.2003C122.837 14.7862 122.899 15.375 122.859 15.9578C122.792 16.9492 122.933 17.9356 122.879 18.9257C122.849 19.4744 122.85 20.0249 122.854 20.5747C122.869 22.4073 122.888 24.2399 122.848 26.0728C122.836 26.6219 122.885 27.173 122.919 27.7225C122.922 27.7786 123.001 27.8564 123.06 27.8765C123.161 27.9112 123.276 27.9207 123.385 27.9187C124.521 27.8955 125.658 27.9234 126.795 27.8979C128.114 27.8683 129.435 27.9278 130.756 27.9469C130.939 27.9493 131.122 27.9418 131.306 27.9401C132.883 27.9255 134.461 27.9108 136.039 27.8962C136.039 27.9047 136.039 27.9129 136.04 27.9217Z"/>
<path clip-path="url(#TextBounds_2)" d="M163.951 27.9425C164.942 27.9425 165.933 27.9445 166.924 27.9401C167.069 27.9394 167.214 27.9098 167.357 27.887C167.474 27.8687 167.618 27.6813 167.606 27.5579C167.592 27.4131 167.566 27.2689 167.544 27.1248C167.527 27.0166 167.46 26.8864 167.498 26.8052C167.668 26.4468 167.478 26.0864 167.541 25.7206C167.652 25.0712 167.66 24.4027 167.551 23.7489C167.506 23.4786 167.63 23.2423 167.606 22.99C167.578 22.7003 167.516 22.4141 167.482 22.1247C167.469 22.0176 167.472 21.8986 167.506 21.7987C167.655 21.3689 167.626 20.932 167.593 20.4914C167.563 20.0905 167.491 19.6815 167.538 19.2881C167.622 18.5897 167.578 17.8955 167.577 17.1991C167.576 16.9441 167.534 16.6895 167.536 16.4348C167.537 16.1788 167.567 15.9231 167.588 15.6671C167.613 15.3363 167.604 15.0129 167.529 14.6838C167.473 14.439 167.495 14.1752 167.492 13.9198C167.485 13.264 167.664 12.6193 167.612 11.9594C167.595 11.7404 167.611 11.5194 167.615 11.2995C167.618 11.1526 167.627 11.006 167.636 10.8595C167.648 10.6565 167.786 10.5188 167.985 10.5192C168.388 10.5195 168.792 10.5239 169.195 10.527C169.635 10.7143 170.062 10.4556 170.498 10.4913C170.607 10.5005 170.719 10.4892 170.828 10.5039C171.592 10.6065 172.356 10.6837 173.119 10.494C174.253 10.5474 175.391 10.4331 176.523 10.5746C176.703 10.5974 176.889 10.5698 177.072 10.5651C177.265 10.56 177.351 10.4831 177.35 10.3097C177.347 9.76029 177.329 9.21017 177.343 8.66107C177.363 7.81787 177.287 6.97433 177.374 6.12977C177.412 5.76801 177.365 5.39707 177.352 5.03089C177.347 4.87415 177.214 4.76603 177.052 4.80139C176.837 4.84865 176.62 4.92855 176.402 4.87245C176.076 4.78847 175.755 4.75515 175.427 4.83845C174.923 4.68885 174.404 4.75039 173.895 4.76433C173.348 4.77929 172.793 4.69429 172.253 4.86225C172.187 4.88299 172.099 4.88843 172.036 4.86293C171.709 4.72897 171.38 4.88163 171.061 4.84831C170.733 4.81397 170.408 4.76875 170.077 4.76705C169.858 4.76535 169.634 4.72931 169.42 4.76025C169.202 4.79153 168.999 4.81329 168.774 4.77555C168.526 4.73407 168.259 4.74903 168.01 4.79187C167.786 4.83063 167.576 4.82791 167.358 4.78609C167.251 4.76603 167.124 4.73577 167.032 4.77317C166.595 4.95201 166.169 4.84593 165.734 4.77385C165.522 4.73849 165.297 4.78915 165.078 4.80241C164.969 4.80887 164.858 4.83879 164.753 4.82451C163.838 4.70245 162.918 4.77929 162.002 4.74971C161.42 4.73067 160.826 4.68749 160.249 4.85273C160.068 4.90441 159.887 4.87687 159.706 4.82791C159.601 4.79935 159.479 4.75107 159.384 4.77861C158.943 4.90747 158.516 4.81091 158.081 4.75005C157.868 4.72081 157.636 4.74291 157.426 4.79493C157.098 4.87653 156.784 4.88537 156.449 4.82315C156.203 4.77759 155.945 4.80887 155.689 4.76331C155.365 4.70517 155.033 4.70857 154.715 4.84525C154.539 4.92141 154.356 4.87415 154.179 4.81227C154.039 4.76331 153.897 4.74971 153.751 4.80615C153.394 4.94351 153.029 4.92821 152.669 4.82689C152.451 4.76535 152.237 4.74461 152.019 4.80853C151.872 4.85205 151.733 4.81601 151.587 4.79901C151.371 4.77351 151.15 4.77793 150.932 4.77351C150.852 4.77181 150.694 4.89761 150.687 4.96391C150.666 5.18253 150.637 5.40115 150.629 5.62045C150.584 6.90327 150.67 8.18643 150.619 9.46959C150.61 9.68753 150.658 9.90785 150.68 10.1271C150.684 10.1635 150.683 10.2026 150.696 10.2359C150.735 10.3376 150.778 10.4403 150.902 10.4671C151.081 10.5056 151.277 10.6096 151.436 10.5688C152.06 10.409 152.681 10.5392 153.301 10.5392C154.329 10.5392 155.356 10.4648 156.383 10.5358C156.565 10.5488 156.749 10.5165 156.933 10.5131C157.152 10.5086 157.382 10.4733 157.591 10.5222C157.92 10.6001 158.257 10.4726 158.566 10.5603C158.909 10.6579 159.22 10.5137 159.546 10.527C159.692 10.5328 159.84 10.5015 159.986 10.5076C160.129 10.5134 160.27 10.546 160.413 10.5668C160.417 10.6732 160.41 10.782 160.43 10.8857C160.512 11.3195 160.594 11.7466 160.422 12.1852C160.374 12.3062 160.424 12.4735 160.451 12.6153C160.555 13.1633 160.559 13.7124 160.445 14.2554C160.389 14.5182 160.395 14.7596 160.482 15.0099C160.544 15.1867 160.532 15.3699 160.482 15.5518C160.452 15.6566 160.406 15.7722 160.426 15.8718C160.583 16.6711 160.49 17.4807 160.531 18.2841C160.546 18.5755 160.554 18.8699 160.458 19.1575C160.426 19.2544 160.423 19.3796 160.454 19.4761C160.571 19.8362 160.538 20.2024 160.532 20.5689C160.524 20.9728 160.516 21.3764 160.516 21.7803C160.515 22.1461 160.581 22.5157 160.443 22.8714C160.288 23.2736 160.548 23.6697 160.46 24.0675C160.42 24.2514 160.42 24.4224 160.461 24.6074C160.588 25.1895 160.565 25.7848 160.439 26.3547C160.328 26.8572 160.446 27.2978 160.597 27.75C160.616 27.8071 160.7 27.8711 160.762 27.8799C160.979 27.9105 161.199 27.9316 161.419 27.9329C162.263 27.9387 163.107 27.9353 163.951 27.9353C163.951 27.9377 163.951 27.9404 163.951 27.9425Z"/>
<path clip-path="url(#TextBounds_2)" d="M181.09 23.8693C181.082 24.3085 181.067 24.7482 181.066 25.1874C181.065 25.9946 181.072 26.8018 181.077 27.6093C181.078 27.7514 181.21 27.904 181.337 27.9149C181.482 27.9275 181.628 27.9465 181.774 27.9462C182.985 27.9425 184.197 27.9357 185.408 27.9278C185.518 27.9272 185.627 27.9166 185.737 27.9064C185.881 27.8932 186.064 27.6643 186.056 27.5056C186.052 27.3961 186.038 27.2869 186.03 27.1778C186.002 26.812 185.934 26.4441 185.954 26.0813C186.04 24.5785 185.933 23.0764 185.959 21.5736C185.972 20.7946 186.058 20.0419 186.27 19.2942C186.409 18.8022 186.516 18.2994 186.603 17.7952C186.647 17.5449 186.652 17.2916 186.735 17.0431C186.826 16.7673 186.866 16.4743 186.928 16.1883C186.975 15.9738 187.059 15.7589 187.058 15.5444C187.056 15.0214 187.148 14.5244 187.343 14.0416C187.383 13.9409 187.419 13.8311 187.423 13.7243C187.441 13.281 187.51 12.8499 187.693 12.4419C187.751 11.5976 188.108 10.8085 188.147 9.96021C188.154 9.81571 188.182 9.66611 188.232 9.53011C188.373 9.14965 188.464 8.77021 188.475 8.35541C188.487 7.92021 188.8 7.53839 188.793 7.08449C188.982 6.59999 189.035 6.09203 189.069 5.57829C189.081 5.39843 189.148 5.22265 189.184 5.04415C189.211 4.91121 189.072 4.76773 188.917 4.76671C188.477 4.76399 188.037 4.76195 187.597 4.76229C186.716 4.76297 185.835 4.76263 184.954 4.76807C184.638 4.77011 184.489 4.90815 184.446 5.22129C184.426 5.36647 184.401 5.51233 184.399 5.65853C184.386 6.42863 184.379 7.19703 184.187 7.95251C184.134 8.16161 184.157 8.39043 184.144 8.60973C184.125 8.93919 184.153 9.28123 184.072 9.59471C183.979 9.95715 183.963 10.3148 183.953 10.6807C183.948 10.8632 183.953 11.057 183.894 11.225C183.745 11.6514 183.736 12.0859 183.733 12.5286C183.732 12.8573 183.69 13.1861 183.662 13.5146C183.66 13.5458 183.632 13.5751 183.615 13.6053C183.599 13.5724 183.57 13.5407 183.567 13.5067C183.529 13.0318 183.532 12.55 183.452 12.0828C183.301 11.2131 183.338 10.326 183.167 9.46007C183.147 9.35671 183.169 9.24009 183.192 9.13333C183.229 8.95075 183.251 8.76919 183.181 8.59205C183.098 8.38057 183.115 8.16093 183.103 7.94129C183.075 7.39389 183.099 6.84309 182.923 6.30691C182.856 6.10563 182.896 5.87069 182.88 5.65139C182.866 5.46949 182.845 5.28793 182.818 5.10773C182.795 4.96085 182.563 4.77861 182.416 4.77997C182.343 4.78099 182.264 4.76467 182.198 4.78643C181.694 4.95439 181.191 4.93875 180.678 4.81975C180.245 4.71945 179.793 4.69089 179.365 4.78473C178.962 4.87279 178.576 4.91291 178.173 4.83539C178.101 4.82145 177.99 5.00369 178.027 5.09141C178.143 5.36647 178.173 5.65717 178.215 5.94821C178.267 6.31065 178.345 6.66901 178.403 7.03077C178.507 7.68119 178.604 8.33297 178.814 8.96095C178.913 9.94661 179.202 10.8932 179.411 11.856C179.441 11.9985 179.474 12.1457 179.471 12.2899C179.459 12.7373 179.588 13.1572 179.68 13.588C179.803 14.1575 180.042 14.7056 180.023 15.3036C180.225 15.7841 180.206 16.3094 180.327 16.8092C180.446 17.3035 180.63 17.7921 180.631 18.3133C180.837 18.7533 180.778 19.2538 180.942 19.7012C181.059 20.0208 181.071 20.3489 181.073 20.678C181.078 21.7415 181.075 22.8047 181.075 23.8682C181.08 23.8686 181.085 23.8686 181.09 23.8693Z"/>
</g>
</g>
</svg>
